<?xml version="1.0" encoding="UTF-8"?>
<svg xmlns="http://www.w3.org/2000/svg" version="1.1" viewBox="0 0 50 50">
  <defs>
    <style>
      .cls-1 {
        fill: #314c9b;
      }
    </style>
  </defs>
  <!-- Generator: Adobe Illustrator 28.6.0, SVG Export Plug-In . SVG Version: 1.2.0 Build 709)  -->
  <g>
    <g id="Camada_2">
      <g id="Camada_1-2">
        <g>
          <path class="cls-1" d="M0,25c0-3.9-.1-7.7.2-11.6C.7,8.4,2.8,4.4,7.3,2,9.7.7,12.3.2,14.9.2c7.2-.2,14.5-.3,21.7.1,6.9.4,11.8,4.8,13,11.6.3,2.1.4,4.2.4,6.4,0,5.5,0,10.9,0,16.4,0,2.4-.3,4.7-1.3,6.9-1.9,4.4-5.3,7-10,7.9-2.8.5-5.6.5-8.4.5-5.1,0-10.1,0-15.2,0-2.7,0-5.2-.5-7.6-1.7-3.8-2-6-5.2-6.9-9.4-.4-2.1-.4-4.2-.5-6.3C0,30,0,27.5,0,25h0ZM4.6,25.2c0,2.2,0,4.4,0,6.5,0,1.9,0,3.8.3,5.7.6,3.8,3,6.5,6.7,7.5,1.8.5,3.6.5,5.4.5,4.6,0,9.2,0,13.9,0,2.5,0,5,0,7.4-.5,3.3-.7,5.5-2.6,6.5-5.9.4-1.5.6-3,.6-4.5,0-5.7.2-11.4,0-17,0-1.7,0-3.4-.4-5.1-.7-4-3-6.4-7-7.3-1.7-.4-3.4-.4-5.1-.5-5.4,0-10.7,0-16,0-1.8,0-3.5,0-5.2.5-3.2.8-5.5,2.6-6.5,5.8-.4,1.3-.6,2.7-.6,4,0,3.4,0,6.8,0,10.2h0Z"/>
          <path class="cls-1" d="M25,37.7c-6.7,0-12.5-4.7-12.6-12.7-.1-6.9,5.7-12.6,12.6-12.6,6.9,0,12.7,5.7,12.6,12.5-.1,8-5.9,12.6-12.6,12.7ZM25,33.3c4.5,0,8.3-3.6,8.2-8.1,0-5.6-4.2-8.3-8.2-8.3-3.9,0-8.1,2.6-8.2,8.3,0,4.4,3.7,8.1,8.2,8.1Z"/>
          <path class="cls-1" d="M38.3,8.6c1.8,0,3.2,1.3,3.2,3.1s-1.3,3.2-3.2,3.2c-1.8,0-3.2-1.4-3.2-3.1,0-1.8,1.3-3.1,3.2-3.1h0Z"/>
        </g>
      </g>
    </g>
  </g>
</svg>