<?xml version="1.0" encoding="UTF-8"?>
<svg xmlns="http://www.w3.org/2000/svg" version="1.1" viewBox="0 0 50 50">
  <defs>
    <style>
      .cls-1 {
        fill: #030303;
      }

      .cls-1, .cls-2, .cls-3, .cls-4 {
        display: none;
      }

      .cls-5 {
        fill: none;
        stroke: #314c9b;
        stroke-miterlimit: 10;
        stroke-width: 3px;
      }

      .cls-3, .cls-6 {
        fill: #314c9b;
      }

      .cls-4 {
        fill: #e52331;
      }
    </style>
  </defs>
  <!-- Generator: Adobe Illustrator 28.6.0, SVG Export Plug-In . SVG Version: 1.2.0 Build 709)  -->
  <g>
    <g id="Camada_1">
      <g id="Camada_2">
        <g id="Camada_1-2" class="cls-2">
          <g>
            <path class="cls-6" d="M.2,25c0-3.9-.1-7.7.2-11.6C.9,8.4,3,4.4,7.5,2,9.9.7,12.5.2,15.1.2,22.3,0,29.6-.1,36.8.3c6.9.4,11.8,4.8,13,11.6.3,2.1.4,4.2.4,6.4v16.4c0,2.4-.3,4.7-1.3,6.9-1.9,4.4-5.3,7-10,7.9-2.8.5-5.6.5-8.4.5h-15.2c-2.7,0-5.2-.5-7.6-1.7-3.8-2-6-5.2-6.9-9.4-.4-2.1-.4-4.2-.5-6.3-.1-2.6-.1-5.1-.1-7.6H.2ZM4.8,25.2v6.5c0,1.9,0,3.8.3,5.7.6,3.8,3,6.5,6.7,7.5,1.8.5,3.6.5,5.4.5h13.9c2.5,0,5,0,7.4-.5,3.3-.7,5.5-2.6,6.5-5.9.4-1.5.6-3,.6-4.5,0-5.7.2-11.4,0-17,0-1.7,0-3.4-.4-5.1-.7-4-3-6.4-7-7.3-1.7-.4-3.4-.4-5.1-.5h-16c-1.8,0-3.5,0-5.2.5-3.2.8-5.5,2.6-6.5,5.8-.4,1.3-.6,2.7-.6,4v10.2h0Z"/>
            <path class="cls-6" d="M25.2,37.7c-6.7,0-12.5-4.7-12.6-12.7-.1-6.9,5.7-12.6,12.6-12.6s12.7,5.7,12.6,12.5c0,8-5.9,12.6-12.6,12.7h0ZM25.2,33.3c4.5,0,8.3-3.6,8.2-8.1,0-5.6-4.2-8.3-8.2-8.3s-8.1,2.6-8.2,8.3c0,4.4,3.7,8.1,8.2,8.1Z"/>
            <path class="cls-6" d="M38.5,8.6c1.8,0,3.2,1.3,3.2,3.1s-1.3,3.2-3.2,3.2-3.2-1.4-3.2-3.1,1.3-3.1,3.2-3.1h0Z"/>
          </g>
        </g>
        <g>
          <path class="cls-3" d="M50.2,4.1v41.9c-.2,0-.2.3-.2.4-.4,1.4-1.3,2.5-2.7,3.1-.4.2-.9.3-1.3.5H4.2c0,0-.2,0-.3-.2-1.9-.5-3.1-1.7-3.6-3.6,0,0,0-.2-.2-.3V4c.2,0,.2-.3.2-.4C.8,2.1,1.7,1.1,3.1.5,3.5.3,3.9.2,4.3,0h41.7c1.6.3,2.8,1.1,3.5,2.5.3.5.3,1,.6,1.5h0ZM2.2,25v19.8c0,2.1,1.2,3.3,3.3,3.3h39.5c2.1,0,3.3-1.2,3.3-3.3V5.3c0-2.1-1.2-3.3-3.3-3.3H5.5c-2.1,0-3.3,1.2-3.3,3.3,0,6.6,0,13.1,0,19.7Z"/>
          <path class="cls-6" d="M25.6,46.8c1.4,0,3-.1,4.4-.4.3,0,.4,0,.4-.4-.1-1.8,0-3.6,0-5.5s-.3-3.5-1.6-4.9c-.9-1-.3-2.2,1-2.5,1.1-.3,2.4-.4,3.5-.8,2.7-1,4.8-2.7,5.8-5.2,1.3-3.4,1-6.6-1.1-9.5s-1-1.8-.7-2.9c.3-1,.1-2.1,0-3.1,0-.4-.3-.6-.7-.4-1.3.4-2.4,1.1-3.5,1.8-1,.6-1.8.7-2.8.4-3.1-.8-6.2-.8-9.2,0-1,.3-2,.1-2.8-.4-1.1-.7-2.3-1.4-3.5-1.8-.6-.1-.7,0-.7.4,0,1.3-.1,2.4.1,3.6.3.8,0,1.5-.4,2.2-1,1.1-1.6,2.4-1.8,3.8-1.1,4.5,1,8.7,5.3,10.8,1.4.7,3.1,1.1,4.7,1.4,1.3.3,1.7,1.4,1,2.4,0,.1-.3.3-.4.4-1,1.1-1.3,2.2-1.3,3.6v6.3c0,.4.1.4.4.4,1.4.3,2.8.4,4.4.4h-.3Z"/>
          <path class="cls-6" d="M.2,25c0-3.9-.1-7.7.2-11.6C.9,8.4,3,4.4,7.5,2,9.9.7,12.5.3,15.1.2,22.3,0,29.6-.1,36.8.3c6.9.4,11.8,4.8,13,11.6.3,2.1.4,4.2.4,6.4v16.4c0,2.4-.3,4.7-1.3,6.9-1.9,4.4-5.3,7-10,7.9-2.8.5-5.6.5-8.4.5h-15.2c-2.7,0-5.2-.5-7.6-1.7-3.8-2-6-5.2-6.9-9.4-.4-2.1-.4-4.2-.5-6.3v-7.5h-.1ZM4.9,25.2v6.5c0,1.9,0,3.8.3,5.7.6,3.8,3,6.5,6.7,7.5,1.8.5,3.6.5,5.4.5h13.9c2.5,0,5,0,7.4-.5,3.3-.7,5.5-2.6,6.5-5.9.4-1.5.6-3,.6-4.5,0-5.7.2-11.4,0-17,0-1.7,0-3.4-.4-5.1-.7-4-3-6.4-7-7.3-1.7-.4-3.4-.4-5.1-.5h-16c-1.8,0-3.5,0-5.2.5-3.2.8-5.5,2.6-6.5,5.8-.4,1.3-.6,2.7-.6,4v10.2h0Z"/>
          <path class="cls-3" d="M44,25.3c0,10.1-8.5,18.3-18.8,18.2-10.4,0-18.8-8.2-18.8-18.3S14.9,6.9,25.2,7c10.3,0,18.8,8.3,18.8,18.3Z"/>
          <ellipse class="cls-4" cx="25.2" cy="27.8" rx="19.9" ry="19.6"/>
          <path class="cls-1" d="M18.9,43.2c-.7,0-1.6.1-2.3,0-1.6-.2-2.8-1.2-3.6-2.4-.7-1.1-1.4-2-3-2.1-.6,0-1.1-.7-1.1-1.3s.5-1.1,1.2-1.2c1.1,0,2.2.2,3,.9s1.4,1.5,2,2.3c.8,1.1,1.9,1.5,3.2,1.1.2,0,.5-.1.5-.5,0-.6.2-1.1.5-1.6s0-.4-.2-.5c-.6-.2-1.2-.4-1.8-.7-7-3.1-8.1-11-4.8-16.1.4-.5.4-1,.2-1.5-.2-1.5-.2-2.9.4-4.4.5-1.2,1.3-1.7,2.6-1.5,1.6.2,3,1,4.3,1.8.4.2.7.2,1.2.1,2.8-.6,5.5-.6,8.3,0,.5,0,1,0,1.3-.2,1.2-.7,2.4-1.3,3.8-1.7,1.9-.4,2.9.4,3.4,2.2.2,1.2.2,2.4,0,3.7,0,.4-.1.7.1,1.2,1,1.2,1.4,2.7,1.7,4.2.7,3.9-.2,7.3-3.2,10.1-1.4,1.3-3.1,2.2-4.9,2.7-.5,0-.5.2-.4.6.2.4.4.9.4,1.3.2,2,0,4,.1,6v.7c8.6-2.9,15-12.2,12.8-22.6-2-9.9-11.5-16.6-21.7-15.5-9.9,1.1-17.7,9.8-17.6,19.7s7.4,16.7,13.2,18.3v-3.4l.4.4Z"/>
          <path class="cls-5" d="M22.1,40.2c-1.6,1.7-4,2.2-5.9,1.3-1.2-.6-1-2.2-2.5-3.3-1.2-.9-4.4-.9-3.5-.9"/>
        </g>
      </g>
    </g>
  </g>
</svg>