<?xml version="1.0" encoding="UTF-8"?>
<svg xmlns="http://www.w3.org/2000/svg" version="1.1" viewBox="0 0 50 50">
  <defs>
    <style>
      .cls-1 {
        fill: #030303;
      }

      .cls-2, .cls-3 {
        display: none;
      }

      .cls-3, .cls-4 {
        fill: #314c9b;
      }
    </style>
  </defs>
  <!-- Generator: Adobe Illustrator 28.6.0, SVG Export Plug-In . SVG Version: 1.2.0 Build 709)  -->
  <g>
    <g id="Camada_2">
      <g id="Camada_1-2" class="cls-2">
        <g>
          <path class="cls-4" d="M0,25c0-3.9-.1-7.7.2-11.6C.7,8.4,2.8,4.4,7.3,2,9.7.7,12.3.2,14.9.2c7.2-.2,14.5-.3,21.7.1,6.9.4,11.8,4.8,13,11.6.3,2.1.4,4.2.4,6.4,0,5.5,0,10.9,0,16.4,0,2.4-.3,4.7-1.3,6.9-1.9,4.4-5.3,7-10,7.9-2.8.5-5.6.5-8.4.5-5.1,0-10.1,0-15.2,0-2.7,0-5.2-.5-7.6-1.7-3.8-2-6-5.2-6.9-9.4-.4-2.1-.4-4.2-.5-6.3C0,30,0,27.5,0,25h0ZM4.6,25.2c0,2.2,0,4.4,0,6.5,0,1.9,0,3.8.3,5.7.6,3.8,3,6.5,6.7,7.5,1.8.5,3.6.5,5.4.5,4.6,0,9.2,0,13.9,0,2.5,0,5,0,7.4-.5,3.3-.7,5.5-2.6,6.5-5.9.4-1.5.6-3,.6-4.5,0-5.7.2-11.4,0-17,0-1.7,0-3.4-.4-5.1-.7-4-3-6.4-7-7.3-1.7-.4-3.4-.4-5.1-.5-5.4,0-10.7,0-16,0-1.8,0-3.5,0-5.2.5-3.2.8-5.5,2.6-6.5,5.8-.4,1.3-.6,2.7-.6,4,0,3.4,0,6.8,0,10.2h0Z"/>
          <path class="cls-4" d="M25,37.7c-6.7,0-12.5-4.7-12.6-12.7-.1-6.9,5.7-12.6,12.6-12.6,6.9,0,12.7,5.7,12.6,12.5-.1,8-5.9,12.6-12.6,12.7ZM25,33.3c4.5,0,8.3-3.6,8.2-8.1,0-5.6-4.2-8.3-8.2-8.3-3.9,0-8.1,2.6-8.2,8.3,0,4.4,3.7,8.1,8.2,8.1Z"/>
          <path class="cls-4" d="M38.3,8.6c1.8,0,3.2,1.3,3.2,3.1s-1.3,3.2-3.2,3.2c-1.8,0-3.2-1.4-3.2-3.1,0-1.8,1.3-3.1,3.2-3.1h0Z"/>
        </g>
      </g>
      <g class="cls-2">
        <path class="cls-3" d="M50,4.1v41.9c-.2,0-.2.3-.2.4-.4,1.4-1.3,2.5-2.7,3.1-.4.2-.9.3-1.3.5H4c0-.1-.2-.1-.3-.2-1.9-.5-3.1-1.7-3.6-3.6,0,0,0-.2-.2-.3V4c.2,0,.2-.3.2-.4C.6,2.1,1.5,1.1,2.9.5c.4-.2.8-.3,1.2-.5,13.9,0,27.8,0,41.7,0,0,0,0,0,0,0,1.6.3,2.8,1.1,3.5,2.5.3.5.3,1,.6,1.5ZM2,25c0,6.6,0,13.2,0,19.8,0,2.1,1.2,3.3,3.3,3.3,13.2,0,26.4,0,39.5,0,2.1,0,3.3-1.2,3.3-3.3,0-13.2,0-26.3,0-39.5,0-2.1-1.2-3.3-3.3-3.3-13.2,0-26.3,0-39.5,0-2.1,0-3.3,1.2-3.3,3.3,0,6.6,0,13.1,0,19.7Z"/>
        <path class="cls-4" d="M0,25c0-3.9-.1-7.7.2-11.6C.7,8.4,2.8,4.4,7.3,2,9.7.7,12.3.3,14.9.2c7.2-.2,14.5-.3,21.7.1,6.9.4,11.8,4.8,13,11.6.3,2.1.4,4.2.4,6.4,0,5.5,0,10.9,0,16.4,0,2.4-.3,4.7-1.3,6.9-1.9,4.4-5.3,7-10,7.9-2.8.5-5.6.5-8.4.5-5.1,0-10.1,0-15.2,0-2.7,0-5.2-.5-7.6-1.7-3.8-2-6-5.2-6.9-9.4-.4-2.1-.4-4.2-.5-6.3,0-2.5,0-5,0-7.5h0ZM4.7,25.2c0,2.2,0,4.4,0,6.5,0,1.9,0,3.8.3,5.7.6,3.8,3,6.5,6.7,7.5,1.8.5,3.6.5,5.4.5,4.6,0,9.2,0,13.9,0,2.5,0,5,0,7.4-.5,3.3-.7,5.5-2.6,6.5-5.9.4-1.5.6-3,.6-4.5,0-5.7.2-11.4,0-17,0-1.7,0-3.4-.4-5.1-.7-4-3-6.4-7-7.3-1.7-.4-3.4-.4-5.1-.5-5.4,0-10.7,0-16,0-1.8,0-3.5,0-5.2.5-3.2.8-5.5,2.6-6.5,5.8-.4,1.3-.6,2.7-.6,4,0,3.4,0,6.8,0,10.2h0Z"/>
        <path class="cls-4" d="M43.8,25.3c0,10.1-8.5,18.3-18.8,18.2-10.4,0-18.8-8.2-18.8-18.3,0-10,8.5-18.3,18.8-18.2,10.3,0,18.8,8.3,18.8,18.3Z"/>
        <path class="cls-1" d="M19.5,37.6c-.6,0-1.3.1-1.9,0-1.3-.2-2.3-1-3-2-.6-.9-1.2-1.6-2.5-1.7-.5,0-.9-.6-.9-1.1,0-.5.4-.9,1-1,.9,0,1.8.2,2.5.7.7.5,1.2,1.2,1.7,1.9.7.9,1.6,1.2,2.7.9.2,0,.4-.1.4-.4,0-.5.2-.9.4-1.3.1-.2,0-.3-.2-.4-.5-.2-1-.3-1.5-.6-5.8-2.5-6.8-9-4-13.2.3-.4.3-.8.2-1.2-.2-1.2-.2-2.4.3-3.6.4-1,1.1-1.4,2.2-1.2,1.3.2,2.5.8,3.6,1.5.3.2.6.2,1,.1,2.3-.5,4.6-.5,6.9,0,.4,0,.8,0,1.1-.2,1-.6,2-1.1,3.2-1.4,1.6-.3,2.4.3,2.8,1.8.2,1,.2,2,0,3,0,.3-.1.6.1,1,.8,1,1.2,2.2,1.4,3.4.6,3.2-.2,6-2.7,8.3-1.2,1.1-2.6,1.8-4.1,2.2-.4,0-.4.2-.3.5.2.3.3.7.3,1.1.2,1.6,0,3.3.1,4.9,0,.2,0,.4,0,.6,7.2-2.4,12.5-10,10.7-18.5-1.7-8.1-9.6-13.6-18.1-12.7-8.3.9-14.8,8-14.7,16.1.1,8.1,6.2,13.7,11,15v-2.8Z"/>
        <path class="cls-4" d="M25,41.4c1,0,2.1-.1,3.1-.3.2,0,.3,0,.3-.3-.1-1.3,0-2.6,0-3.9,0-1.3-.2-2.5-1.1-3.5-.6-.7-.2-1.6.7-1.8.8-.2,1.7-.3,2.5-.6,1.9-.7,3.4-1.9,4.1-3.7.9-2.4.7-4.7-.8-6.8-.5-.7-.7-1.3-.5-2.1.2-.7.1-1.5,0-2.2,0-.3-.2-.4-.5-.3-.9.3-1.7.8-2.5,1.3-.7.4-1.3.5-2,.3-2.2-.6-4.4-.6-6.5,0-.7.2-1.4.1-2-.3-.8-.5-1.6-1-2.5-1.3-.4-.1-.5,0-.5.3,0,.9-.1,1.7.1,2.6.2.6,0,1.1-.3,1.6-.7.8-1.1,1.7-1.3,2.7-.8,3.2.7,6.2,3.7,7.7,1,.5,2.2.8,3.3,1,.9.2,1.2,1,.7,1.7,0,.1-.2.2-.3.3-.7.8-.9,1.6-.9,2.6,0,1.5,0,3,0,4.5,0,.3.1.3.3.3,1,.2,2,.3,3.1.3Z"/>
      </g>
      <g>
        <path class="cls-3" d="M26.6,50c-8.6,0-17.2,0-25.9,0C.1,50,0,49.9,0,49.3,0,33.1,0,16.9,0,.7,0,.1.1,0,.7,0c16.2,0,32.4,0,48.6,0,.6,0,.7.1.7.7,0,16.2,0,32.4,0,48.6,0,.6-.1.7-.7.7-4.9,0-9.8,0-14.7,0,0-6.2,0-12.4,0-18.5,0-.6.2-.8.8-.8,1.6,0,3.3,0,4.9,0,.6,0,.8-.2.9-.8.2-2.1.5-4.1.8-6.2.1-.7,0-.9-.8-.9-1.8,0-3.6,0-5.5,0-.9,0-1.2-.2-1.2-1.1,0-1.3,0-2.7,0-4,0-2.1,1-3.1,3.1-3.2,1.2,0,2.5,0,3.7,0,.6,0,.8-.2.8-.9,0-1.8,0-3.6,0-5.5,0-.6-.2-.8-.8-.8-2,0-4,0-6,0-5,.1-8.5,3.8-8.7,8.1-.1,2.1,0,4.2,0,6.3,0,.7-.2.9-.9.9-1.6,0-3.3,0-4.9,0-.5,0-.7.2-.7.7,0,2.1,0,4.3,0,6.4,0,.6.2.7.7.7,1.6,0,3.3,0,4.9,0,.7,0,.9.2.9.9,0,2.1,0,4.2,0,6.3,0,4,0,8.1,0,12.1Z"/>
        <path class="cls-4" d="M43,0H7C3.1,0,0,3.1,0,7v36c0,3.9,3.1,7,7,7h36c3.9,0,7-3.1,7-7V7c0-3.9-3.1-7-7-7ZM41.3,14.6c-1.2,0-2.5,0-3.7,0-2.1,0-3.1,1.1-3.1,3.2,0,1.3,0,2.7,0,4,0,.9.3,1.1,1.2,1.1,1.8,0,3.6,0,5.5,0,.7,0,.9.2.8.9-.3,2.1-.6,4.1-.8,6.2,0,.6-.3.8-.9.8-1.6,0-3.3,0-4.9,0-.6,0-.8.2-.8.8,0,6.2,0,12.4,0,18.5h-8c0-4,0-8.1,0-12.1,0-2.1,0-4.2,0-6.3,0-.7-.2-.9-.9-.9-1.6,0-3.3,0-4.9,0-.5,0-.8-.1-.7-.7,0-2.1,0-4.3,0-6.4,0-.6.2-.7.7-.7,1.6,0,3.3,0,4.9,0,.7,0,.9-.2.9-.9,0-2.1,0-4.2,0-6.3.3-4.3,3.8-8,8.7-8.1,2,0,4,0,6,0,.6,0,.8.2.8.8,0,1.8,0,3.6,0,5.5,0,.6-.2.9-.8.9Z"/>
      </g>
    </g>
  </g>
</svg>