<?xml version="1.0" encoding="UTF-8"?>
<svg id="Camada_2" xmlns="http://www.w3.org/2000/svg" viewBox="0 0 60.64 50">
  <defs>
    <style>
      .cls-1 {
        fill: #314c9b;
      }
    </style>
  </defs>
  <g id="Camada_1-2" data-name="Camada_1">
    <path class="cls-1" d="M60.62,30.26c0,.71-.19,9.17-.7,11.55-.39,1.81-.68,2.68-2.07,4.33-1.12,1.33-2.64,2.2-4.54,2.6-2.7.57-5.45.69-8.19.84-12.09.63-24.18.67-36.25-.6-2.42-.25-4.32-1.14-5.69-2.69-1.48-1.67-1.85-2.64-2.21-3.86-.54-1.83-.61-4.32-.69-6.52-.61-16.28-.06-18.07-.02-21.62.01-.83.03-2.6.52-4.83.43-1.93,1-4.54,2.93-6.36.92-.87,2.03-1.49,3.29-1.8,1.32-.33,2.67-.52,4.01-.63C18.81.04,26.6-.07,34.4.03c6.24.08,12.48.16,18.68,1.16,1.76.28,3.24,1.06,4.39,2.27,1.44,1.52,1.99,3.49,2.38,4.86.72,2.56.72,4.69.73,5.63.07,14.09.08,11.25.04,16.3ZM24.43,14.33v21.29c5.29-3.56,10.47-7.05,15.81-10.65-5.37-3.61-10.54-7.09-15.81-10.64Z"/>
  </g>
</svg>