<?xml version="1.0" encoding="UTF-8"?>
<svg id="Camada_2" xmlns="http://www.w3.org/2000/svg" viewBox="0 0 489.34 490.96">
  <defs>
    <style>
      .cls-1 {
        fill: #314c9b;
      }
    </style>
  </defs>
  <g id="Camada_1-2" data-name="Camada_1">
    <g>
      <path class="cls-1" d="M0,490.66v-1.68c.41-.61.42-1.35.61-2.02,10.7-38.93,21.38-77.87,32.1-116.8.85-3.1.56-5.98-.86-8.81-2.05-4.1-4.15-8.18-6.08-12.33-13.66-29.34-22.56-59.95-24.63-92.38-.87-13.59-.53-27.15,1.08-40.66,1.81-15.17,5.17-30.01,9.96-44.53,8.14-24.66,19.84-47.55,34.45-68.97,11.65-17.08,25.14-32.55,40.75-46.13,22.9-19.93,48.86-34.48,77.73-43.84C189.59,4.57,214.76.74,240.44,0c5.21,0,10.42,0,15.62,0,6.95.18,13.88.68,20.79,1.42,13.21,1.42,26.21,3.9,38.97,7.56,36.91,10.57,68.76,29.8,96.3,56.37,8.47,8.17,16.33,16.89,23.72,26.03,12.21,15.11,22.88,31.19,31.17,48.81,9.97,21.19,16.48,43.4,19.84,66.55,1.45,9.97,2.26,19.99,2.47,30.07,0,4.01,0,8.02,0,12.03-.08,1.91-.15,3.83-.23,5.74-.58,13.92-2.42,27.67-5.42,41.26-4.68,21.25-12.05,41.52-22.15,60.8-12.61,24.05-28.76,45.42-48.48,64.08-17.81,16.86-37.73,30.7-59.74,41.53-26.69,13.13-54.89,21-84.45,24.04-11.1,1.14-22.23,1.5-33.39,1.07-12.24-.48-24.36-1.86-36.37-4.23-22.83-4.51-44.54-12.27-65.26-22.81-2.97-1.51-6.06-2.25-9.37-1.51-1.79.4-3.55.92-5.33,1.39-28.84,7.59-57.68,15.18-86.52,22.76-9.95,2.61-19.91,5.19-29.86,7.78-.93.24-1.86.4-2.77-.07ZM246.37,40.79c-12.13.06-23.43.94-34.64,2.86-19.75,3.38-38.6,9.49-56.52,18.43-21.03,10.49-39.68,24.23-55.93,41.21-14.66,15.32-26.66,32.5-35.91,51.58-15.15,31.26-21.79,64.28-20.29,98.95.59,13.6,2.61,27,6.02,40.19,5.57,21.54,14.66,41.51,26.74,60.15,2,3.08,2.52,6.22,1.52,9.79-5.5,19.73-10.92,39.49-16.34,59.24-.64,2.35-1.43,4.64-2.17,6.95-.65,2.04.62,3.26,2.64,2.68,1.15-.33,2.23-.87,3.39-1.17,20.95-5.45,41.94-10.77,62.8-16.57,4.83-1.34,9.27-.72,13.54,1.9,5.58,3.42,11.37,6.45,17.28,9.28,29.23,13.98,60.01,20.57,92.42,19.58,10.36-.32,20.64-1.32,30.84-3.13,18.18-3.22,35.56-8.87,52.15-16.95,23.43-11.42,43.89-26.83,61.38-46.14,19.51-21.53,33.8-46.11,42.85-73.72,6.45-19.68,9.71-39.9,9.89-60.6.11-12.77-1.03-25.44-3.3-38.01-3.47-19.19-9.58-37.51-18.35-54.92-10.37-20.58-23.86-38.88-40.46-54.89-15.33-14.78-32.53-26.88-51.66-36.22-27.97-13.66-57.55-20.38-87.89-20.49Z"/>
      <path class="cls-1" d="M311.65,368.24c-10.32-.06-19.38-1.98-28.31-4.74-29.05-8.99-55.6-22.71-79.36-41.73-15.52-12.42-29.28-26.56-41.44-42.27-12.73-16.45-23.87-33.93-33.4-52.41-5.25-10.17-8.89-20.96-10.24-32.34-2.7-22.85,3.14-43.09,19.13-60.06,4.1-4.36,8.56-8.13,14.38-10,8.26-2.65,16.42-2.7,24.36,1.11,4.33,2.07,7.29,5.45,8.97,9.97,5.95,16.02,11.91,32.03,17.92,48.03,1.55,4.13,1.24,8.01-1.01,11.81-2.34,3.95-5.38,7.33-8.4,10.73-2.55,2.87-5.11,5.72-7.55,8.68-4.32,5.23-4.8,10.11-1.49,16.04,7.37,13.2,16.23,25.33,26.63,36.32,14.54,15.36,31.38,27.58,50.31,36.95,2.93,1.45,5.91,2.79,9.2,3.28,4.32.65,7.72-.95,10.5-4.17,6.58-7.62,13.15-15.25,19.78-22.82,4.21-4.81,6.8-5.33,12.66-2.7,13.29,5.95,26.08,12.87,38.82,19.91,4.43,2.45,8.83,4.96,13.3,7.35,2.69,1.44,4.3,3.59,4.19,6.59-.39,10.44-1.73,20.69-7.17,29.93-2.34,3.97-5.39,7.36-9.04,10.14-8.73,6.66-18.28,11.79-28.94,14.64-4.81,1.29-9.74,1.7-13.78,1.76Z"/>
    </g>
  </g>
</svg>