<?xml version="1.0" encoding="UTF-8"?>
<svg xmlns="http://www.w3.org/2000/svg" version="1.1" viewBox="0 0 387.8 201.2">
  <defs>
    <style>
      .cls-1 {
        fill: #5e5e5e;
      }

      .cls-2 {
        fill: #cd988c;
      }

      .cls-3, .cls-4 {
        fill: #ecb531;
      }

      .cls-4 {
        font-family: Rubik-LightItalic, Rubik;
        font-size: 48px;
        font-style: italic;
        font-weight: 300;
        letter-spacing: .2em;
      }

      .cls-5 {
        fill: #040404;
      }
    </style>
  </defs>
  <!-- Generator: Adobe Illustrator 28.6.0, SVG Export Plug-In . SVG Version: 1.2.0 Build 709)  -->
  <g>
    <g id="Camada_2">
      <g id="Camada_1-2">
        <g>
          <path class="cls-3" d="M138.7,127.2c2.2,3,4.6,5.5,7.7,7.4,5.6,3.3,11.8,4.4,18.1,3.8,21.9-2.2,39.6-12.1,53.3-29.2,5.3-6.7,8.4-14.4,8.1-23.2-.2-4.8-1.5-9.1-5.2-12.4-1.9-1.7-4-2.2-6.4-1.2-1.8.7-3.6,1.5-5.5,1.7-4.1.4-7.1-3.4-5.9-7.3.4-1.2,1.3-1.9,2.3-2.4,1.8-.9,3.6-1.4,5.6-1.4,1.5,0,3-.2,4.4-1,6.7-3.8,12.8-8.4,17.4-14.7,1.5-2.1,2.8-4.4,3.2-7,.8-4.6-1.6-7.3-6.2-7.2-3.4.1-6.5,1.5-9.4,3.2-6.6,3.7-11.7,9.1-16.4,14.9-8.4,10.5-15.5,21.9-22.2,33.5-5.1,8.7-9.9,17.4-14.9,26.1-1.4,2.3-2.1,2.6-4.6,2.1-5.3-1.1-6.2-2.4-5.5-7.6,1.2-8.5,3.8-16.7,6.4-24.8,3.1-9.8,6.5-19.5,10.2-29.1.2-.5.6-.9.3-1.6-6.2.2-12.3-.4-18.4-2.1-8.7-2.4-16.4-6.7-23.7-11.9-7.4-5.3-14.6-10.9-22-16.2-5.9-4.3-12.2-7.9-19.2-10.2-10.3-3.4-20.2-2.2-29.9,2.1-3.9,1.7-7.8,3.6-11.7,5.4-.7.3-1.3.8-2.3.5,9.6-7.1,19.1-14.3,31.2-16.5,7.7-1.4,15.2-.3,22.6,2,10.7,3.3,20.4,8.6,29.9,14.3,9.2,5.5,18.1,11.6,27.5,16.6,8.6,4.6,17.8,7.5,27.6,7.4,3.1,0,6.2-.5,9.1-2,2.7-1.5,4.4-3.6,4.8-6.7.2-1.2.2-2.5-1.1-3.1-1.2-.6-2.1.2-2.9.9-1.9,1.7-3.2,3.9-4.4,6.2-.4.8-.9,1.1-1.7,1.2-3.1.4-6.1.3-9.2,0-.7,0-1-.2-.6-.9,2.6-4.7,5.2-9.4,9.7-12.8,2.3-1.7,4.8-2.8,7.6-2.5,5.8.6,9.1,6.3,7.3,12.3-1.2,4.1-4,7-7.4,9.3-2.9,2-6,3.3-9.3,4.3-1,.3-1.6.8-2,1.8-3.8,9.9-6.9,20-9.8,30.3,1.1,0,1.2-.9,1.6-1.4,4.2-6.8,8.5-13.5,13.4-19.8,6.9-9.1,14.3-17.7,23.6-24.4,4.8-3.5,9.9-6.3,16-6.9,7.6-.8,13.4,4.1,13.7,11.8.3,6.9-2.5,12.7-6.7,17.9-3.4,4.3-7.7,7.5-12.4,10.3,1.4,1.6,3,3,4.2,4.6,6.1,7.8,7.5,16.6,5.9,26.1-2.2,13.2-9,23.9-18.7,32.8-11.7,10.7-25.3,17.6-41,20.3-6.6,1.1-13.1,1.2-19.5-.8-9.8-2.9-15.5-10-16.4-20.2,0-.9-.1-1.7-.2-2.6h0Z"/>
          <path class="cls-3" d="M316.1,90.6c-5,2.6-9.4,6.1-13.6,9.8-5.1,4.5-9.7,9.5-13,15.6-1.1,2.1-2,4.3-2.6,6.6-.7,2.3-2.6,2.8-4.5,1.1-2-1.8-2.8-4.3-3.5-6.8-.2-.6-.3-1.3-.5-2.2-1.2,1.2-2.1,2.3-3.2,3.3-2.4,2.4-4.8,4.7-7.6,6.5-3.6,2.3-5.8,1.8-8-1.8-1.3-2.1-1.9-4.5-2.1-7-.6,0-.7.5-.9.8-2.9,3.5-5.8,6.9-9.4,9.7-1.3,1-2.6,1.8-4.1,2.5-1.5.7-2.7.4-3.8-.8-2.6-2.9-3.5-6.3-3.2-10.2.5-5.4,2.1-10.4,3.9-15.4,5.9-15.7,13.9-30.3,24.4-43.5,2.8-3.5,5.7-6.9,9.3-9.6,3.7-2.8,7.3-3,11-.7,2.2,1.4,2.3,2.3.2,3.9-5.6,4.4-10.1,10-14.4,15.7-9.6,12.8-17.6,26.4-23.6,41.2-1.3,3.2-2.4,6.5-2.6,9.9,0,.7-.2,1.5.4,1.9.8.5,1.5,0,2.1-.5,3.6-2.3,6.2-5.7,8.9-8.9,1.9-2.2,3.2-4.6,4.2-7.3,2.8-7.8,6.9-14.8,12-21.3,2-2.6,4.2-3,7.1-1.4.9.5,1.6,1.2,2.3,2,1.2,1.4,1.3,2.4.2,3.9-2.2,3.1-4.7,5.9-6.8,9.1-3.6,5.4-6.5,11.1-7.9,17.6-.2,1.1-.7,2.6.5,3.3,1,.6,2.1-.4,3-1,3.7-2.4,6.9-5.6,9.5-9.2,1.7-2.3,2.5-5.3,4-7.9,3.8-6.7,8.1-13,13.2-18.7,1.8-2,2.3-2,4.4-.3.5.4.9.8,1.3,1.2,3.3,3.5,3.4,5,.4,8.7-2.9,3.6-5.9,7.2-8.4,11.2,1,.3,1.4-.6,1.9-1,6.6-6.2,13.5-12.3,21-17.4,1.8-1.2,3.6-2.3,5.6-3.2,1.5-.7,2.8-.4,4,.8.6.6,1.2,1.3,1.7,2,2.4,3.4,2.5,5,.1,8.5-3,4.4-6.2,8.7-9.2,13.1-2.1,3.1-4,6.2-4.9,9.9-.2,1-.7,2.2.2,2.9.9.8,2.1,0,3-.3,3.8-1.8,6.8-4.6,10-7.3,1.8-1.6,3-3.5,4-5.7,6-13.4,14.5-25.2,24.3-36,5-5.6,10.4-10.7,17-14.6,5.9-3.5,10.4-.3,13.1,3.7,1.1,1.6.8,2.2-1,2.9-4.8,2.1-8.8,5.4-12.6,8.9-12.5,11.4-23.1,24.3-31.7,39-.5.9-1,1.9-1.4,2.9,0,.1,0,.3,0,.5.9,0,1.1-.8,1.4-1.2,5.2-6.3,10.7-12.4,17.6-17.1,4-2.7,8.2-4.8,13.2-5.3,1.9-.2,3.5.2,4.9,1.5,1.4,1.3,3,2.5,4.2,4.2-3.7,1-7.2,2.2-10.7,3.6-3.6,1.5-7.2,3.2-10.6,5.1-.6.3-1.2.7-1.2,1.6,0,6.8.3,13.5,3.4,19.7.2.4.5.8.8,1.2,2,2.5,3.6,2.9,6.4,1.2,3-1.8,5.6-4,8.2-6.3,3.2-2.9,6.5-5.8,9.7-8.8,1.1,2,.6,5-1.4,6.8-4.8,4.2-9.2,8.9-14.4,12.7-1.5,1.1-3.1,2.1-4.8,2.9-3.8,1.7-6.9,1-9.7-2.2-2.7-3-3.7-6.8-4.4-10.6-.7-3.6-.8-7.2-.8-10.8s.3-1.2-.2-1.5c-.5-.3-1,.3-1.3.7-6.1,5.1-11.2,11.1-14.7,18.2-.9,1.8-1.7,1.9-2.9.3-2.7-3.7-3.6-7.8-3.5-12.4-.5-.2-.7.3-1,.6-3.3,2.9-6.5,5.8-10.3,8-1.1.7-2.3,1.2-3.5,1.6-2.9.9-4.4.4-6-2.2-3.1-5.1-3.3-10.5-1.5-16,1.8-5.3,4.9-9.9,8.4-14.3.4-.5.9-1.1,1.3-1.6,0-.1.1-.3,0-.4-.1-.1-.3,0-.3.2h0ZM339.8,111.7c.1-.1.3-.2.4-.3,0,0-.1-.2-.2-.2-.1,0-.3.1-.4.2,0,0,.1.2.2.3h0Z"/>
          <path class="cls-1" d="M151.1,93.4c-4.3-2.7-9.1-3.2-14-2.9-5.2.3-10.3,1.3-15.3,2.3-15.5,3.1-30.6,1.9-45.2-4.1-14.5-6-25.7-15.6-32.1-30.2-.1-.3-.2-.8-.8-.8,1,4.5,2.4,8.8,4.4,12.9,2,4.2,4.7,7.8,7.5,11.4,1.9,2.4,1.1,4.3-2,4.8-2.9.4-5.6-.1-8.2-1.3-.3-.2-.6-.7-1.1-.3h0c.3.6.8,1.1,1.3,1.6,2.2,2,5,2.5,7.8,2.6,1.5,0,2.9,0,4.4,0-4.1,1.5-8.2,1.5-12.3.3-4.2-1.2-7.5-3.7-10.1-7.1.2,1.3.8,2.4,1.4,3.4,3.4,5,8.3,7.3,14.1,8.3,2.2.4,4.4,0,6.7.4-.2.2-.2.3-.3.3-.2,0-.4.2-.6.2-7,2-13.2,0-18.8-4.2-3.6-2.7-6.4-6.1-7.3-10.7-.6-3,.9-5.8,3.5-7.2,2.9-1.4,5.7-1,7.9,1.2.3-.7-.2-1.1-.5-1.6-1.1-1.3-2.5-1.8-4.2-1.8-4.9-.2-8.8,3.6-9.1,8.8-.3,4.9,1.9,8.6,5.2,11.9,2.7,2.8,6,4.8,9.6,6.2.3.1.9.2.7.6-.2.5-.6.2-1,0-1.2-.4-2.5-.7-3.7-1.1-5.8-2.1-10.4-5.3-12.8-11.2-.6-1.5-1-3-1.1-4.5,0-1.5,0-2.9,0-4.4-1.7,5.9-1.1,11.4,2.9,16.3,3.9,4.8,9.2,7.1,15.1,8.2,2.1.4,4.3.4,6.4.7-5.4.9-10.7.6-15.9-1.4-5-1.9-9-5-11.2-10.1-.4-.1-.5,0-.6.4,1.7,7.8,6.8,12.1,14.4,13.8,4.7,1.1,9.4,1,14.1.3.4,0,.9-.2,1.3-.2.4,0,.9-.4,1.4.2-5.5,1.4-11,2.1-16.5,1.6-5-.4-9.7-1.6-13.4-5.2-.2-.2-.5-.2-.8,0,.7.9,1.4,1.9,2.2,2.8,3.1,3.3,7.2,4.7,11.5,5.2,8.8,1.1,17.2-.7,25.5-3.8.8-.3,1.5-.9,2.8-.5-11.4,6.4-23.2,8.5-35.8,5.6,2.6,1.8,6.8,3,10.8,3.3,9.1.6,17.7-1.2,25.8-5.3,0,0,0,0,0,0,.7-.4,1.4-.9,2.1-1.3.6-.3,1.1-.7,1.7-.9.7-.5,1.5-1.1,2.2-1.6h0s0,0,0,0c0,0,0,0,0,0h0s0,0,0,0c0,0,0,0,.1-.1,0,0,.2-.2.3-.2,0,0,0,0,.1,0h0c0,0,.2,0,.5.1,0,0-.2.2-.2.2,0,0,0,0,0,0-.2.2-.4.3-.6.5,0,0,0,0-.2.1,0,0,0,0,0,0-.5.8-1.3,1.3-2.1,1.8-.1,0-.2.2-.4.3-.3.1-.7.7-1,.7,0,0,0,0,0,0,0,0,0,0,0,.1,0,0-.2.1-.3.2-.2.3-.8.5-1.1.7-1.7,1.2-3.5,2.2-5.3,3-7.9,3.6-16,5.4-24.7,4-.3.2,0,.4,0,.6,14.4,3.3,27.3,0,38.8-9.2,0,0,.1-.1.2-.2h0c0,0,0,0,.1,0,0,0,0-.1.2-.1,0-.1.2-.2.3-.3.2-.2.5-.4.7-.6,0,0,0,0,.1-.2,0,0,0,0,0,0,0,0,0,0,0,0,0,0,0,0,0,0h0s0,0,0,0c0,0,0,0,0,0,0,0,0,0,0,0,0,0,0,.2,0,.3,0,.1-.1.2-.2.3-.1.2-.3.3-.4.5h0c-.1.1-.3.3-.4.4,0,0,0,0,0,0-7.1,8-16,12.5-26.4,14.3,7.3.4,14.1-1.2,20.5-4.6,4.8-2.6,8.8-6.1,12.5-10.1.2-.2.3-.3.4-.5,0-.2.1-.4.4-.3.2.2,0,.3,0,.5-.1.2-.3.4-.4.6-.3.6-.5,1.2-.9,1.7-4,6.2-9.6,10.7-16.2,14-2,1-4.1,1.8-6.5,2.8,3.9-.2,7.2-1.1,10.3-2.5,6.9-3.1,12.7-7.7,17.5-13.5.2-.2.3-.6.5-.8.2-.4.5-.7.7-1h0c0-.1.2-.2.4-.1.2.1.1.3,0,.5,0,.2,0,.4-.2.5,0,0,0,0,0,0,0,0,0,.1,0,.2,0,.1,0,.2-.1.3,0,0,0,0,0,0,0,.3-.3.5-.4.8-.8,1.7-1.8,3.3-2.9,4.9-3.7,5.3-8.3,9.6-13.6,13.2.2.1.2.2.3.3.2.2.4,0,.5-.1,4.6-1.5,8.6-4,12.2-7.1,4.4-3.8,7.7-8.4,10.4-13.4,0-.2,0-.6.3-.5.3.1.1.5,0,.8-2.2,10.3-8.4,17.9-16.2,24.4,11.1-4.2,17.7-12.8,22.3-23.2-.2,5-2,9.4-4.3,13.6-2.3,4.3-5.4,8-9,11.2,2-.5,3.6-1.8,5.2-2.9,6.9-5.1,11.4-11.8,13.6-20.2,0,8-2.4,15.3-6.3,22.1.6.2.9,0,1.2-.4,6.2-6.2,8.3-14.3,10.3-22.4.8,7.2,0,14.2-1.7,21.3,4.9-6.2,5.1-13.6,5.7-20.9,1.3,5.3,1.7,10.7,2.3,16.1,1.9-4.6,1.7-9.5,1.8-14.4.8,1.7,1.4,3.6,2.4,5.2,1.3,2.1,2.5,3.4,3.9,4-1.6-3.2-2.9-6.4-2.8-10.1,1.7,3.5,3.3,7,7.7,8.4-3-2.9-4.5-6.6-4.4-9.9,3.7,5.5,4.7,6.4,7.3,6.8-3.4-4.6-4.4-6.7-4-9,2.6,4.2,5.7,6.2,9,5.8-3.2-2.2-5.8-4.8-5.7-9.2,4.6,4.6,5.5,5.2,8.2,5.5.1-.8-.6-.9-1-1.3-1.7-1.4-3.1-3.2-3.8-5.3-.1-.3-.6-.7-.2-1,.5-.4.7.2,1,.5,1.5,1.7,3.4,2.7,5.9,3.3-1.6-2-3.1-3.7-3.8-5.8-1.1-3.1.3-5.6,3.5-6.4,1.9-.5,3.8-.4,5.8-.1.8.1,1.7.6,2.7.4-.4-.8-1-1-1.5-1.4h0ZM53.2,105.2s0-.2,0-.2c.3-.3.6-.2.8,0-.3.1-.5.4-.8.2h0Z"/>
          <path class="cls-2" d="M197.2,156c0-2.3,1.1-3.8,2.8-5,4.8-3.4,10-5.8,15.5-7.9,13-5.1,26.6-8,40.4-9.9,13.6-1.9,27.2-2.8,40.9-2.5,14.4.3,28.6,1.6,42.5,5.6,7.4,2.1,14.6,5,20.6,10,4.1,3.4,7.4,7.3,8.1,12.8.4,2.9.2,5.8-1.2,8.5-.9,1.6-1.9,1.9-3.3,1-17.2-10.6-36.1-16.8-55.9-20.6-22.9-4.4-45.9-5.1-69-2.2-13.9,1.8-27.5,5-40.7,10-.2,0-.4.1-.7.2h0Z"/>
          <path class="cls-2" d="M46.1,51.5c1.6,2,3.1,4,4.6,5.8,5.2,6.5,11.7,11.2,19.1,14.8,8.7,4.2,18,6.4,27.7,7,6.7.4,13.4.1,20.1-.3,5.6-.4,11.2-.9,16.8-.4,3.2.3,6.5.4,9.6,1.6,5.1,2,8.4,5.6,10.5,10.6-.6.5-.9,0-1.3-.3-5.2-3.1-10.9-3.9-16.9-3.5-6.7.4-13.3,2.1-19.9,3.1-8.6,1.3-17.2,1.2-25.8-.6-11.3-2.3-21.3-7.2-29.7-15-6.7-6.2-11.5-13.7-14.8-22.2,0,0,0-.2,0-.5h0Z"/>
          <path class="cls-3" d="M294.1,63.7c1.3,0,2.1.4,2.9,1,1.5,1.4,2.5,3.1,3.1,5,.3.9,0,1.6-1,1.8-5.7,1.1-10.5,3.9-14.6,7.8-.6.6-1.3.7-2,.2-1.2-.8-2.3-1.7-2.2-3.3,0-.6.2-1.2.5-1.7,2.7-5,6.5-8.8,12-10.6.5-.2,1-.2,1.3-.3h0Z"/>
          <path class="cls-2" d="M59.4,40.8c.9,3.3,2.9,5.3,6.2,6-3.2,1-5.3,2.9-6.2,6.2-.6-3.5-3.1-5-6.1-6.1,3.1-1,5.4-2.6,6.1-6.1Z"/>
          <path class="cls-2" d="M39.8,41.7c-1-3.1-3-4.8-5.9-5.6,0-.8.6-.8,1-1,2.3-.7,3.7-2.3,4.3-4.5,0-.2,0-.6.4-.6.2,0,.4.1.5.3.5,3.1,2.8,4.5,5.7,5.5-3.1.9-5.1,2.7-6,5.9h0Z"/>
          <path class="cls-2" d="M31.4,56c-.6-3.2-2.5-4.7-5.1-5.7,2.9-.7,4.4-2.5,5.1-5.1.6.2.6.7.7,1,.6,2,2,3.2,4,3.7.3,0,.5.1.6.5,0,.2-.1.4-.3.5-1.1.4-2.3.7-3,1.7-.6,1-1.1,2-1.9,3.5Z"/>
          <path class="cls-2" d="M20.5,43c-1.7.6-2.9,1.6-3.6,3.2-.2.5-.6.4-.8,0-.6-1.7-2-2.4-4-3.1,2.3-.7,3.8-1.8,4.4-4.1.5,2.3,2,3.3,4,4.1Z"/>
          <path class="cls-2" d="M13.8,16.9c.9,1.7,2.1,2.8,3.9,3.5-2,.6-3.1,2-3.8,4.1-.6-2.2-1.9-3.4-4.1-4,1.8-1.1,3.6-1.6,4.1-3.7h0Z"/>
          <path class="cls-2" d="M26,32.3c-1.9.4-2.6,1.8-3.4,3.5-.6-1.9-1.5-3-3.6-3.5,1.8-.9,3.2-1.7,3.6-3.5.8,1.5,1.8,2.7,3.4,3.4h0Z"/>
          <path class="cls-2" d="M55.4,37.6c-.6-1.9-1.8-2.8-3.3-3.5,1.4-.9,2.8-1.6,3.3-3.4.8,1.4,1.4,2.6,2.8,3,.7.2.4.7-.1.8-1.3.5-2.1,1.4-2.7,3.1Z"/>
          <path class="cls-2" d="M6.6,28.9c-1.6.7-2.8,1.5-3.3,3.3C2.8,30.4,1.7,29.6,0,29.1c1.6-.7,2.9-1.4,3.3-3,.6,1.4,1.5,2.4,3.3,2.9Z"/>
          <path class="cls-2" d="M31.2,28.3c-.6-1.4-1.5-2.2-3.1-2.7,1.4-.8,2.7-1.3,3-2.9,1.1.9,1.5,2.1,2.8,2.6.4.1.2.6-.1.7-1.1.4-1.7,1.4-2.5,2.4Z"/>
          <path class="cls-2" d="M12.3,35.7c-.9-.9-2.1-1.6-2.2-2.3,0-.7,1.6-.9,1.8-2.2.8.9,1.4,1.7,2.4,2.1-.7.9-1.9,1.2-2.1,2.4h0Z"/>
          <path class="cls-2" d="M37.3,64.3c-.5-1.2-1.4-1.8-2.3-2.5.9-.7,2-1,2.2-2.7.6,1.5,1.5,2.1,2.5,2.8-1,.6-1.9,1.2-2.4,2.5h0Z"/>
          <path class="cls-2" d="M1.8,17.2c.3-.2.6-.3.7-.4,1.5-2.3,2.8-.8,4,.3,0,.1,0,.2-.1.3-1.5.8-2.7.8-4.6-.2h0Z"/>
          <path class="cls-2" d="M19.8,14.2c1.2-.2,1.6-1,2.2-1.8.3.4.4,1,.8,1.1,1.5.7,1,1,0,1.9-.8.7-1,1.1-1.6,0-.2-.4-.7-.6-1.4-1.1Z"/>
          <path class="cls-5" d="M44.4,85.2c0,0,0-.2,0-.2,0,0,.1,0,.2,0,0,0,0,.1-.2.2,0,0,0,0,0,0Z"/>
          <text class="cls-4" transform="translate(48.2 194.5)"><tspan x="0" y="0">ACADEMY</tspan></text>
        </g>
      </g>
    </g>
  </g>
</svg>