<?xml version="1.0" encoding="UTF-8"?>
<svg id="Camada_2" xmlns="http://www.w3.org/2000/svg" viewBox="0 0 49.99 49.98">
  <defs>
    <style>
      .cls-1 {
        fill: #fff;
      }
    </style>
  </defs>
  <g id="Camada_2-2" data-name="Camada_2">
    <g id="Camada_1-2">
      <g>
        <path class="cls-1" d="M23.14,49.98h3.9c.04-.13.15-.09.24-.1,4.13-.4,7.96-1.69,11.4-4.01,6.14-4.14,9.84-9.86,11.04-17.18.09-.55.05-1.12.27-1.64v-4.1c-.13-.04-.09-.15-.1-.24-.11-1.02-.26-2.03-.47-3.03C47.3,9.66,38.79,1.7,28.69.27c-.55-.08-1.12-.04-1.65-.27h-3.9c-.03.11-.12.09-.2.09-.76.04-1.52.15-2.27.28C10.15,2.18,1.81,10.75.27,21.34c-.08.56-.05,1.15-.27,1.69v4c.13.04.09.15.1.24.09.84.21,1.67.37,2.5,1.99,10.32,10.48,18.42,20.87,19.93.6.09,1.21.07,1.79.27h.01ZM25.02,3.12c12.06.02,21.86,9.85,21.84,21.89-.02,12.05-9.85,21.87-21.89,21.84-12.06-.02-21.87-9.85-21.84-21.89.02-12.06,9.85-21.86,21.89-21.84Z"/>
        <path class="cls-1" d="M29.68,37.68c.02-.71-.25-1.1-.61-1.46-3.61-3.61-7.22-7.23-10.84-10.82-.37-.36-.31-.52.02-.85,3.63-3.61,7.25-7.24,10.87-10.86.46-.46.68-.99.48-1.63-.18-.6-.59-.96-1.19-1.09-.61-.13-1.1.12-1.53.55-1.88,1.89-3.77,3.77-5.66,5.66-2.17,2.17-4.35,4.35-6.52,6.52-.87.87-.87,1.7,0,2.58,4.04,4.04,8.07,8.07,12.11,12.11.68.68,1.31.82,2.01.47.56-.28.83-.75.85-1.18h.01Z"/>
      </g>
    </g>
  </g>
</svg>